<svg width="11" height="7" viewBox="0 0 11 7" fill="none" xmlns="http://www.w3.org/2000/svg">
<path d="M5.33333 2.29329L1.12 6.45329C1.01333 6.59551 0.862222 6.66663 0.666667 6.66663C0.471111 6.66663 0.311111 6.6044 0.186667 6.47996C0.0622222 6.35551 0 6.19551 0 5.99996C0 5.8044 0.0711111 5.65329 0.213333 5.54663L4.85333 0.853292C4.99556 0.71107 5.15556 0.639959 5.33333 0.639959C5.51111 0.639959 5.67111 0.71107 5.81333 0.853292L10.4533 5.54663C10.5956 5.65329 10.6667 5.8044 10.6667 5.99996C10.6667 6.19551 10.6044 6.35551 10.48 6.47996C10.3556 6.6044 10.1956 6.66663 10 6.66663C9.80444 6.66663 9.65333 6.59551 9.54667 6.45329L5.33333 2.29329Z" fill="white"/>
</svg>
