<svg width="22" height="27" viewBox="0 0 22 27" fill="none" xmlns="http://www.w3.org/2000/svg">
<path d="M20.1289 23.6386C19.0035 25.2505 17.8103 26.8234 15.9934 26.8494C14.1766 26.8884 13.5935 25.8224 11.5326 25.8224C9.45809 25.8224 8.82079 26.8234 7.09879 26.8884C5.32259 26.9534 3.98029 25.1725 2.84139 23.5996C0.52279 20.3888 -1.2534 14.4742 1.13299 10.4965C2.31259 8.52064 4.42779 7.27274 6.71919 7.23374C8.45469 7.20774 10.1089 8.36464 11.1801 8.36464C12.2376 8.36464 14.2444 6.97374 16.346 7.18174C17.2273 7.22074 19.695 7.51974 21.2814 9.75554C21.1594 9.83354 18.3391 11.4194 18.3662 14.7082C18.4069 18.6339 21.9593 19.9468 22 19.9598C21.9593 20.0508 21.4305 21.8317 20.1289 23.6386ZM12.3868 2.84004C13.3766 1.76104 15.0172 0.942137 16.3731 0.890137C16.5494 2.41104 15.9121 3.94494 14.963 5.03684C14.0274 6.14184 12.4817 6.99974 10.9631 6.88274C10.7597 5.38784 11.519 3.82794 12.3868 2.84004Z" fill="white"/>
</svg>
