<svg width="18" height="21" viewBox="0 0 18 21" fill="none" xmlns="http://www.w3.org/2000/svg">
<path d="M3.7871 15.6125H14.3532C16.0731 15.6125 17.4723 14.2107 17.4723 12.4875V3.42505C17.4723 1.70187 16.0731 0.300049 14.3532 0.300049H3.7871C2.06716 0.300049 0.667969 1.70187 0.667969 3.42505V17.175C0.667969 18.8982 2.06716 20.3 3.7871 20.3H14.3532C16.0731 20.3 17.4723 18.8982 17.4723 17.175C17.4723 16.7435 17.1232 16.3937 16.6925 16.3937C16.2618 16.3937 15.9127 16.7435 15.9127 17.175C15.9127 18.0365 15.2131 18.7375 14.3532 18.7375H3.7871C2.92721 18.7375 2.22753 18.0365 2.22753 17.175C2.22753 16.3135 2.92721 15.6125 3.7871 15.6125ZM2.22753 3.42505C2.22753 2.56354 2.92721 1.86255 3.7871 1.86255H14.3532C15.2131 1.86255 15.9127 2.56354 15.9127 3.42505V12.4875C15.9127 13.349 15.2131 14.05 14.3532 14.05H3.7871C3.21932 14.05 2.68657 14.2027 2.22753 14.4693V3.42505ZM5.38566 5.57349C5.38566 5.14197 5.73474 4.79224 6.16545 4.79224H12.0138C12.4445 4.79224 12.7936 5.14197 12.7936 5.57349C12.7936 6.00501 12.4445 6.35474 12.0138 6.35474H6.16545C5.73474 6.35474 5.38566 6.00501 5.38566 5.57349Z" fill="#7F7E97"/>
</svg>
