<svg width="20" height="16" viewBox="0 0 20 16" fill="none" xmlns="http://www.w3.org/2000/svg">
<path d="M19.1654 7.67484C19.1661 6.95711 18.9818 6.25024 18.6287 5.61655C18.2756 4.98286 17.7646 4.44182 17.1408 4.04113C16.5169 3.64045 15.7994 3.39242 15.0514 3.31892C14.3034 3.24543 13.548 3.34872 12.8517 3.61969C12.1554 3.89066 11.5396 4.32099 11.0587 4.87273C10.5778 5.42447 10.2465 6.08068 10.094 6.78349C9.94145 7.48631 9.97245 8.21415 10.1842 8.90285C10.396 9.59155 10.782 10.2198 11.3082 10.7325V15.1746C11.3082 15.2812 11.3366 15.386 11.391 15.4791C11.4453 15.5722 11.5237 15.6505 11.6187 15.7066C11.7136 15.7626 11.8221 15.7946 11.9336 15.7994C12.0452 15.8042 12.1561 15.7816 12.256 15.7339L14.582 14.623L16.9081 15.7339C17.0079 15.7816 17.1189 15.8042 17.2305 15.7994C17.342 15.7946 17.4505 15.7626 17.5454 15.7066C17.6404 15.6505 17.7188 15.5722 17.7731 15.4791C17.8275 15.386 17.8559 15.2812 17.8559 15.1746V10.7325C18.6956 9.91675 19.1659 8.81855 19.1654 7.67484ZM14.582 4.54994C15.2295 4.54994 15.8625 4.73321 16.4009 5.07658C16.9392 5.41995 17.3589 5.90799 17.6066 6.47899C17.8544 7.05 17.9193 7.67831 17.7929 8.28448C17.6666 8.89065 17.3548 9.44745 16.897 9.88445C16.4391 10.3215 15.8558 10.6191 15.2207 10.7397C14.5857 10.8602 13.9274 10.7983 13.3292 10.5618C12.731 10.3253 12.2197 9.92485 11.86 9.41095C11.5002 8.89705 11.3082 8.29289 11.3082 7.67484C11.3082 6.84607 11.6532 6.05124 12.2671 5.4652C12.8811 4.87917 13.7138 4.54994 14.582 4.54994ZM14.875 13.3652C14.7841 13.3218 14.6838 13.2992 14.582 13.2992C14.4803 13.2992 14.38 13.3218 14.289 13.3652L12.6178 14.1637V11.627C13.2315 11.9053 13.9025 12.0497 14.582 12.0497C15.2615 12.0497 15.9325 11.9053 16.5463 11.627V14.1637L14.875 13.3652ZM9.99869 12.6746C9.99869 12.8404 9.92972 12.9994 9.80692 13.1166C9.68413 13.2338 9.51759 13.2996 9.34394 13.2996H2.14156C1.79425 13.2996 1.46117 13.1679 1.21558 12.9335C0.969998 12.6991 0.832031 12.3812 0.832031 12.0497V2.05001C0.832031 1.7185 0.969998 1.40057 1.21558 1.16616C1.46117 0.931739 1.79425 0.800049 2.14156 0.800049H16.5463C16.8936 0.800049 17.2267 0.931739 17.4723 1.16616C17.7179 1.40057 17.8559 1.7185 17.8559 2.05001C17.8559 2.21577 17.7869 2.37473 17.6641 2.49194C17.5413 2.60915 17.3747 2.67499 17.2011 2.67499C17.0274 2.67499 16.8609 2.60915 16.7381 2.49194C16.6153 2.37473 16.5463 2.21577 16.5463 2.05001H2.14156V12.0497H9.34394C9.51759 12.0497 9.68413 12.1155 9.80692 12.2327C9.92972 12.3499 9.99869 12.5089 9.99869 12.6746ZM8.68918 8.29983C8.68918 8.46555 8.62019 8.62455 8.4974 8.74175C8.37461 8.85895 8.20807 8.92485 8.03441 8.92485H4.7606C4.58695 8.92485 4.42041 8.85895 4.29762 8.74175C4.17483 8.62455 4.10584 8.46555 4.10584 8.29983C4.10584 8.13407 4.17483 7.9751 4.29762 7.8579C4.42041 7.74069 4.58695 7.67484 4.7606 7.67484H8.03441C8.20807 7.67484 8.37461 7.74069 8.4974 7.8579C8.62019 7.9751 8.68918 8.13407 8.68918 8.29983ZM8.68918 5.7999C8.68918 5.96566 8.62019 6.12462 8.4974 6.24183C8.37461 6.35904 8.20807 6.42488 8.03441 6.42488H4.7606C4.58695 6.42488 4.42041 6.35904 4.29762 6.24183C4.17483 6.12462 4.10584 5.96566 4.10584 5.7999C4.10584 5.63415 4.17483 5.47518 4.29762 5.35797C4.42041 5.24077 4.58695 5.17492 4.7606 5.17492H8.03441C8.20807 5.17492 8.37461 5.24077 8.4974 5.35797C8.62019 5.47518 8.68918 5.63415 8.68918 5.7999Z" fill="#7F7E97"/>
</svg>
