<svg width="20" height="21" viewBox="0 0 20 21" fill="none" xmlns="http://www.w3.org/2000/svg">
<mask id="mask0_6512_6650" style="mask-type:luminance" maskUnits="userSpaceOnUse" x="0" y="0" width="20" height="21">
<path d="M20 0.300049H0V20.3H20V0.300049Z" fill="white"/>
</mask>
<g mask="url(#mask0_6512_6650)">
<path d="M19.9979 10.2684C19.9979 10.7059 19.9979 11.1434 19.9355 11.5809C19.8731 11.8934 19.5611 12.1434 19.2491 12.1434C18.9371 12.1434 18.6876 11.7684 18.6876 11.4559C18.7499 11.0184 18.7499 10.6433 18.7499 10.2684C18.7499 5.45568 14.8189 1.51802 10.0143 1.51802C9.63997 1.51802 9.26559 1.51802 8.82881 1.58052C8.51682 1.64302 8.14244 1.39301 8.14244 1.0805C8.08004 0.767987 8.32963 0.392971 8.64162 0.392971C14.1326 -0.35706 19.1243 3.5181 19.8731 8.95583C19.9979 9.39335 19.9979 9.83086 19.9979 10.2684Z" fill="#7F7E97"/>
<path d="M6.64646 18.3313C5.96009 18.0188 5.27372 17.6437 4.64975 17.2062C4.40016 17.0187 3.96338 17.0187 3.77619 17.3312C3.589 17.5812 3.589 18.0188 3.90098 18.2063C4.58735 18.7063 5.33612 19.2063 6.14728 19.5188C6.45927 19.6438 6.83365 19.5188 6.95844 19.2063C7.14564 18.8313 7.02084 18.4563 6.64646 18.3313Z" fill="#7F7E97"/>
<path d="M4.27599 3.45564C4.40078 3.45564 4.52557 3.39314 4.65037 3.33063C5.27434 2.89312 5.89831 2.4556 6.58468 2.20559C6.89667 2.08058 7.08386 1.70557 6.95906 1.39305C6.83427 1.08054 6.45989 0.893032 6.1479 1.01804C5.33674 1.33055 4.58797 1.76807 3.9016 2.33059C3.65201 2.5806 3.58962 2.95562 3.77681 3.20563C3.9016 3.39314 4.08879 3.45564 4.27599 3.45564Z" fill="#7F7E97"/>
<path d="M1.96682 13.6435C1.84203 13.331 1.46764 13.1435 1.15566 13.2685C0.843674 13.3935 0.656482 13.7685 0.781277 14.081C1.09326 14.8935 1.53004 15.6436 2.09162 16.3311C2.27881 16.5811 2.71559 16.6436 2.96518 16.4561C3.21476 16.2686 3.27716 15.8311 3.08997 15.5811C2.65319 15.0185 2.21641 14.331 1.96682 13.6435Z" fill="#7F7E97"/>
<path d="M1.34154 11.456C1.21674 10.706 1.21674 9.95592 1.34154 9.14339C1.40394 8.83087 1.15435 8.51836 0.779965 8.45586C0.405582 8.39335 0.155993 8.64337 0.0935958 9.01838C-0.0311986 9.89342 -0.0311986 10.7685 0.0935958 11.6435C0.155993 11.956 0.405582 12.206 0.717567 12.206H0.779965C1.15435 12.081 1.40394 11.7685 1.34154 11.456Z" fill="#7F7E97"/>
<path d="M1.09028 7.26822C1.40227 7.39322 1.77665 7.26822 1.90144 6.9557C2.21343 6.26818 2.58781 5.58065 3.02459 4.95562C3.21178 4.70561 3.21178 4.26809 2.8998 4.08059C2.65021 3.89308 2.27583 3.95558 2.08864 4.20559C1.58946 4.89312 1.15268 5.64315 0.778291 6.45568C0.653496 6.7682 0.778291 7.14321 1.09028 7.26822Z" fill="#7F7E97"/>
<path d="M15.3203 17.2062C14.6963 17.6437 14.0724 18.0813 13.3236 18.3313C13.0116 18.4563 12.8244 18.8313 12.9492 19.1438C13.074 19.4563 13.4484 19.6438 13.7604 19.5188C14.5715 19.2063 15.3203 18.7688 16.0067 18.2063C16.2563 18.0188 16.3187 17.6437 16.1315 17.3312C16.0067 17.0812 15.6323 17.0187 15.3203 17.2062Z" fill="#7F7E97"/>
<path d="M11.1374 18.9562C10.3886 19.0812 9.6399 19.0812 8.82874 18.9562C8.51675 18.8937 8.20477 19.1437 8.14237 19.5187C8.07997 19.8312 8.32956 20.1437 8.70395 20.2062C9.57751 20.3313 10.451 20.3313 11.3246 20.2062C11.6366 20.1437 11.8862 19.8312 11.8862 19.5187C11.8238 19.1437 11.5118 18.8937 11.1374 18.9562Z" fill="#7F7E97"/>
<path d="M18.8746 13.3311C18.5627 13.2061 18.1883 13.3311 18.0635 13.6436C17.7515 14.3311 17.3771 15.0186 16.9403 15.6437C16.7531 15.8937 16.7531 16.3312 17.0651 16.5187C17.3771 16.7062 17.7515 16.7062 17.9387 16.3937C18.5003 15.7062 18.937 14.9561 19.249 14.1436C19.3738 13.8311 19.1866 13.4561 18.8746 13.3311Z" fill="#7F7E97"/>
<path d="M10.0146 4.70569C9.64021 4.70569 9.39062 4.9557 9.39062 5.33072V10.3309C9.39062 10.706 9.64021 10.956 10.0146 10.956H15.0064C15.3808 10.956 15.6304 10.706 15.6304 10.3309C15.6304 9.95591 15.3808 9.7059 15.0064 9.7059H10.6386V5.33072C10.6386 4.9557 10.389 4.70569 10.0146 4.70569Z" fill="#7F7E97"/>
</g>
</svg>
