<svg width="20" height="21" viewBox="0 0 20 21" fill="none" xmlns="http://www.w3.org/2000/svg">
<path d="M17.4219 1.86255H15.625V0.925049C15.625 0.579893 15.3452 0.300049 15 0.300049C14.6548 0.300049 14.375 0.579893 14.375 0.925049V1.86255H5.625V0.925049C5.625 0.579893 5.3452 0.300049 5 0.300049C4.6548 0.300049 4.375 0.579893 4.375 0.925049V1.86255H2.57812C1.15652 1.86255 0 3.01907 0 4.44067V17.7219C0 19.1435 1.15652 20.3 2.57812 20.3H17.4219C18.8435 20.3 20 19.1435 20 17.7219V4.44067C20 3.01907 18.8435 1.86255 17.4219 1.86255ZM2.57812 3.11255H4.375V3.73755C4.375 4.08271 4.6548 4.36255 5 4.36255C5.3452 4.36255 5.625 4.08271 5.625 3.73755V3.11255H14.375V3.73755C14.375 4.08271 14.6548 4.36255 15 4.36255C15.3452 4.36255 15.625 4.08271 15.625 3.73755V3.11255H17.4219C18.1542 3.11255 18.75 3.70833 18.75 4.44067V5.92505H1.25V4.44067C1.25 3.70833 1.84578 3.11255 2.57812 3.11255ZM17.4219 19.05H2.57812C1.84578 19.05 1.25 18.4542 1.25 17.7219V7.17505H18.75V17.7219C18.75 18.4542 18.1542 19.05 17.4219 19.05Z" fill="#7F7E97"/>
</svg>
