<svg width="25" height="25" viewBox="0 0 25 25" fill="none" xmlns="http://www.w3.org/2000/svg">
<g clip-path="url(#clip0_6513_178)">
<g clip-path="url(#clip1_6513_178)">
<path fill-rule="evenodd" clip-rule="evenodd" d="M20.2928 12.7127C20.2928 12.11 20.2387 11.5305 20.1383 10.9741H12.1328V14.262H16.7074C16.5103 15.3246 15.9114 16.2248 15.0112 16.8275V18.9602H17.7583C19.3655 17.4805 20.2928 15.3014 20.2928 12.7127Z" fill="#4285F4"/>
<path fill-rule="evenodd" clip-rule="evenodd" d="M12.135 21.0195C14.43 21.0195 16.3541 20.2584 17.7605 18.9602L15.0134 16.8274C14.2523 17.3374 13.2787 17.6388 12.135 17.6388C9.92111 17.6388 8.04724 16.1436 7.37883 14.1345H4.53906V16.3368C5.9377 19.1147 8.81225 21.0195 12.135 21.0195Z" fill="#34A853"/>
<path fill-rule="evenodd" clip-rule="evenodd" d="M7.37668 14.1346C7.20668 13.6246 7.11009 13.0799 7.11009 12.5196C7.11009 11.9594 7.20668 11.4146 7.37668 10.9046V8.70239H4.5369C3.96122 9.84989 3.63281 11.148 3.63281 12.5196C3.63281 13.8912 3.96122 15.1894 4.5369 16.3369L7.37668 14.1346Z" fill="#FBBC05"/>
<path fill-rule="evenodd" clip-rule="evenodd" d="M12.135 7.40022C13.383 7.40022 14.5034 7.82908 15.3843 8.67136L17.8223 6.2334C16.3503 4.8618 14.4262 4.01953 12.135 4.01953C8.81224 4.01953 5.9377 5.92431 4.53906 8.70226L7.37883 10.9045C8.04724 8.89545 9.92111 7.40022 12.135 7.40022Z" fill="#EA4335"/>
</g>
</g>
<defs>
<clipPath id="clip0_6513_178">
<rect width="24" height="24" fill="white" transform="translate(0.132812 0.519531)"/>
</clipPath>
<clipPath id="clip1_6513_178">
<rect width="24" height="24" fill="white" transform="translate(0.132812 0.519531)"/>
</clipPath>
</defs>
</svg>
