<svg width="21" height="21" viewBox="0 0 21 21" fill="none" xmlns="http://www.w3.org/2000/svg">
<g clip-path="url(#clip0_6512_6595)">
<path d="M18.8029 5.76676C16.4473 4.78899 14.114 3.78899 11.8029 2.76676C11.314 2.58899 10.8029 2.5001 10.2695 2.5001C9.7362 2.5001 9.22509 2.58899 8.7362 2.76676L1.7362 5.76676C1.29175 5.98899 0.936198 6.28899 0.669531 6.66676C0.402865 7.04454 0.269531 7.47787 0.269531 7.96676C0.269531 8.45565 0.402865 8.88899 0.669531 9.26676C0.936198 9.64454 1.29175 9.92232 1.7362 10.1001L3.40286 10.8334V15.7668C3.40286 16.4334 3.62509 16.989 4.06953 17.4334C4.51398 17.8779 5.06953 18.1001 5.7362 18.1001H14.8029C15.4695 18.1001 16.0251 17.8779 16.4695 17.4334C16.914 16.989 17.1362 16.4334 17.1362 15.7668V13.7001C17.1362 13.4779 17.0584 13.289 16.9029 13.1334C16.7473 12.9779 16.5695 12.9001 16.3695 12.9001C16.1695 12.9001 15.9918 12.9779 15.8362 13.1334C15.6806 13.289 15.6029 13.4779 15.6029 13.7001V15.7668C15.6029 15.989 15.5251 16.1779 15.3695 16.3334C15.214 16.489 15.0251 16.5668 14.8029 16.5668H5.7362C5.51398 16.5668 5.32509 16.489 5.16953 16.3334C5.01398 16.1779 4.9362 15.989 4.9362 15.7668V11.5001L8.7362 13.1001C9.22509 13.3223 9.7362 13.4334 10.2695 13.4334C10.8029 13.4334 11.314 13.3223 11.8029 13.1001L18.8029 10.1001C19.2473 9.92232 19.6029 9.64454 19.8695 9.26676C20.1362 8.88899 20.2695 8.45565 20.2695 7.96676C20.2695 7.47787 20.1362 7.04454 19.8695 6.66676C19.6029 6.28899 19.2473 5.98899 18.8029 5.76676ZM18.2029 8.7001C15.8473 9.67787 13.4918 10.6779 11.1362 11.7001C10.8695 11.789 10.5806 11.8334 10.2695 11.8334C9.95842 11.8334 9.66953 11.789 9.40287 11.7001L2.3362 8.7001C2.15842 8.61121 2.02509 8.5001 1.9362 8.36676C1.84731 8.23343 1.80286 8.08899 1.80286 7.93343C1.80286 7.77787 1.84731 7.63343 1.9362 7.5001C2.02509 7.36676 2.15842 7.27787 2.3362 7.23343L9.40287 4.23343C9.66953 4.1001 9.95842 4.03343 10.2695 4.03343C10.5806 4.03343 10.8695 4.1001 11.1362 4.23343L18.2029 7.23343C18.3806 7.27787 18.514 7.36676 18.6029 7.5001C18.6918 7.63343 18.7362 7.77787 18.7362 7.93343C18.7362 8.08899 18.6918 8.23343 18.6029 8.36676C18.514 8.5001 18.3806 8.61121 18.2029 8.7001ZM19.4695 11.5668C19.2473 11.5668 19.0695 11.6445 18.9362 11.8001C18.8029 11.9557 18.7362 12.1445 18.7362 12.3668V15.7668C18.7362 15.989 18.8029 16.1779 18.9362 16.3334C19.0695 16.489 19.2473 16.5668 19.4695 16.5668C19.6918 16.5668 19.8806 16.489 20.0362 16.3334C20.1918 16.1779 20.2695 15.989 20.2695 15.7668V12.3668C20.2695 12.1445 20.1918 11.9557 20.0362 11.8001C19.8806 11.6445 19.6918 11.5668 19.4695 11.5668Z" fill="#7F7E97"/>
</g>
<defs>
<clipPath id="clip0_6512_6595">
<rect width="20" height="20" fill="white" transform="matrix(1 0 0 -1 0.269531 20.3)"/>
</clipPath>
</defs>
</svg>
