<svg width="153" height="39" viewBox="0 0 153 39" fill="none" xmlns="http://www.w3.org/2000/svg">
<g clip-path="url(#clip0_6512_6429)">
<mask id="mask0_6512_6429" style="mask-type:luminance" maskUnits="userSpaceOnUse" x="0" y="0" width="153" height="39">
<path d="M153 0.5H0V38.5H153V0.5Z" fill="white"/>
</mask>
<g mask="url(#mask0_6512_6429)">
<path d="M52.7869 9.42727C52.7037 8.58812 52.3465 7.93623 51.7154 7.47157C51.0843 7.00692 50.2279 6.7746 49.146 6.7746C48.4109 6.7746 47.7902 6.87863 47.2839 7.08668C46.7777 7.2878 46.3893 7.56867 46.1188 7.92929C45.8553 8.28991 45.7235 8.69908 45.7235 9.1568C45.7097 9.53823 45.7894 9.87111 45.9628 10.1555C46.1431 10.4398 46.3893 10.686 46.7014 10.894C47.0135 11.0951 47.3741 11.272 47.7832 11.4246C48.1924 11.5702 48.6293 11.695 49.094 11.7991L51.0081 12.2568C51.9374 12.4648 52.7904 12.7422 53.5671 13.089C54.3438 13.4357 55.0165 13.8622 55.5852 14.3685C56.1539 14.8748 56.5943 15.4712 56.9063 16.1578C57.2254 16.8443 57.3883 17.6315 57.3953 18.5191C57.3883 19.8229 57.0554 20.9534 56.3966 21.9104C55.7447 22.8605 54.8015 23.5991 53.5671 24.1262C52.3396 24.6463 50.859 24.9064 49.1252 24.9064C47.4053 24.9064 45.9073 24.6428 44.6313 24.1158C43.3621 23.5887 42.3704 22.8085 41.6561 21.7752C40.9487 20.7349 40.5777 19.4484 40.543 17.9158H44.9017C44.9503 18.6301 45.1549 19.2265 45.5155 19.705C45.883 20.1766 46.372 20.5338 46.9822 20.7765C47.5995 21.0123 48.2964 21.1302 49.0732 21.1302C49.836 21.1302 50.4983 21.0192 51.0601 20.7973C51.6287 20.5754 52.0691 20.2668 52.3812 19.8715C52.6933 19.4762 52.8493 19.0219 52.8493 18.5087C52.8493 18.0302 52.7072 17.628 52.4228 17.302C52.1454 16.9761 51.7362 16.6987 51.1953 16.4698C50.6613 16.241 50.0059 16.0329 49.2292 15.8457L46.9094 15.2631C45.1132 14.8262 43.695 14.1431 42.6548 13.2138C41.6145 12.2845 41.0978 11.0327 41.1048 9.45848C41.0978 8.16855 41.4411 7.0416 42.1346 6.07763C42.8351 5.11365 43.7956 4.36119 45.0161 3.82026C46.2367 3.27932 47.6237 3.00885 49.1772 3.00885C50.7584 3.00885 52.1385 3.27932 53.3174 3.82026C54.5033 4.36119 55.4257 5.11365 56.0845 6.07763C56.7434 7.0416 57.0832 8.15815 57.104 9.42727H52.7869Z" fill="#06235B"/>
<path d="M64.6522 20.0067L64.6626 14.691H65.3075L70.4256 8.62626H75.5125L68.6364 16.6571H67.5857L64.6522 20.0067ZM60.6367 24.6047V3.30011H65.0683V24.6047H60.6367ZM70.6233 24.6047L65.9213 17.6453L68.8756 14.5141L75.8142 24.6047H70.6233Z" fill="#06235B"/>
<path d="M77.979 24.6047V8.62626H82.4105V24.6047H77.979ZM80.2051 6.56654C79.5463 6.56654 78.9811 6.34808 78.5095 5.91117C78.0449 5.46733 77.8125 4.93679 77.8125 4.31957C77.8125 3.70928 78.0449 3.18569 78.5095 2.74878C78.9811 2.30493 79.5463 2.08301 80.2051 2.08301C80.864 2.08301 81.4257 2.30493 81.8904 2.74878C82.3619 3.18569 82.5977 3.70928 82.5977 4.31957C82.5977 4.93679 82.3619 5.46733 81.8904 5.91117C81.4257 6.34808 80.864 6.56654 80.2051 6.56654Z" fill="#06235B"/>
<path d="M90.6854 3.30011V24.6047H86.2539V3.30011H90.6854Z" fill="#06235B"/>
<path d="M98.9588 3.30011V24.6047H94.5273V3.30011H98.9588Z" fill="#06235B"/>
<path d="M117.013 10.1867C116.868 9.6804 116.663 9.23309 116.4 8.84472C116.136 8.44942 115.814 8.11654 115.432 7.84607C115.058 7.56867 114.628 7.35715 114.142 7.21151C113.664 7.06587 113.133 6.99306 112.551 6.99306C111.462 6.99306 110.505 7.26352 109.68 7.80446C108.861 8.3454 108.223 9.13253 107.766 10.1659C107.308 11.1922 107.079 12.4475 107.079 13.9316C107.079 15.4157 107.304 16.6779 107.755 17.7181C108.206 18.7584 108.844 19.5525 109.669 20.1003C110.495 20.6413 111.469 20.9118 112.592 20.9118C113.612 20.9118 114.482 20.7314 115.203 20.3708C115.932 20.0033 116.486 19.4866 116.868 18.8208C117.256 18.1551 117.45 17.3679 117.45 16.4594L118.366 16.5947H112.873V13.2034H121.788V15.8873C121.788 17.7598 121.393 19.3687 120.602 20.7141C119.812 22.0526 118.723 23.0859 117.336 23.8141C115.949 24.5353 114.361 24.896 112.572 24.896C110.574 24.896 108.82 24.4556 107.308 23.5748C105.796 22.6871 104.617 21.4284 103.771 19.7987C102.932 18.162 102.512 16.2202 102.512 13.9732C102.512 12.2464 102.762 10.7068 103.261 9.35445C103.767 7.99517 104.475 6.84395 105.383 5.90078C106.292 4.95761 107.349 4.23983 108.556 3.74744C109.763 3.25505 111.07 3.00885 112.478 3.00885C113.685 3.00885 114.808 3.1857 115.848 3.53939C116.889 3.88614 117.811 4.37853 118.616 5.01656C119.427 5.65458 120.089 6.41398 120.602 7.29473C121.116 8.16855 121.445 9.13253 121.591 10.1867H117.013Z" fill="#06235B"/>
<path d="M125.379 24.6047V8.62626H129.676V11.4142H129.842C130.133 10.4224 130.622 9.67345 131.309 9.16719C131.996 8.654 132.786 8.3974 133.681 8.3974C133.903 8.3974 134.142 8.41127 134.399 8.43901C134.655 8.46675 134.881 8.50489 135.075 8.55344V12.4856C134.867 12.4232 134.579 12.3677 134.211 12.3192C133.844 12.2706 133.507 12.2464 133.202 12.2464C132.55 12.2464 131.968 12.3885 131.455 12.6729C130.948 12.9503 130.546 13.3386 130.248 13.838C129.957 14.3373 129.811 14.9129 129.811 15.5648V24.6047H125.379Z" fill="#06235B"/>
<path d="M144.134 24.9168C142.519 24.9168 141.121 24.5735 139.942 23.8869C138.77 23.1934 137.865 22.2294 137.227 20.995C136.589 19.7536 136.27 18.3146 136.27 16.6779C136.27 15.0273 136.589 13.5848 137.227 12.3504C137.865 11.109 138.77 10.1451 139.942 9.45848C141.121 8.76497 142.519 8.41821 144.134 8.41821C145.75 8.41821 147.144 8.76497 148.316 9.45848C149.495 10.1451 150.404 11.109 151.042 12.3504C151.68 13.5848 151.999 15.0273 151.999 16.6779C151.999 18.3146 151.68 19.7536 151.042 20.995C150.404 22.2294 149.495 23.1934 148.316 23.8869C147.144 24.5735 145.75 24.9168 144.134 24.9168ZM144.155 21.4839C144.89 21.4839 145.504 21.2758 145.997 20.8597C146.489 20.4367 146.86 19.8611 147.11 19.1329C147.366 18.4047 147.495 17.576 147.495 16.6467C147.495 15.7174 147.366 14.8886 147.11 14.1604C146.86 13.4323 146.489 12.8567 145.997 12.4336C145.504 12.0106 144.89 11.7991 144.155 11.7991C143.413 11.7991 142.789 12.0106 142.283 12.4336C141.783 12.8567 141.406 13.4323 141.149 14.1604C140.899 14.8886 140.774 15.7174 140.774 16.6467C140.774 17.576 140.899 18.4047 141.149 19.1329C141.406 19.8611 141.783 20.4367 142.283 20.8597C142.789 21.2758 143.413 21.4839 144.155 21.4839Z" fill="#06235B"/>
<path d="M46.5881 31.5497C46.5289 31.358 46.4472 31.1863 46.3431 31.0348C46.2413 30.8809 46.1182 30.7495 45.9737 30.6406C45.8317 30.5317 45.6683 30.45 45.4837 30.3956C45.299 30.3388 45.0978 30.3104 44.88 30.3104C44.4894 30.3104 44.1413 30.4086 43.8359 30.6051C43.5305 30.8016 43.2903 31.0904 43.1151 31.4716C42.9423 31.8504 42.8558 32.312 42.8558 32.8565C42.8558 33.4058 42.9423 33.871 43.1151 34.2521C43.2879 34.6333 43.5281 34.9233 43.8359 35.1222C44.1436 35.3187 44.5012 35.4169 44.9084 35.4169C45.2777 35.4169 45.5972 35.3459 45.8671 35.2038C46.1394 35.0618 46.349 34.8606 46.4958 34.6001C46.6425 34.3374 46.7159 34.0296 46.7159 33.6768L47.0141 33.723H45.0397V32.6932H47.9907V33.5668C47.9907 34.1894 47.8582 34.728 47.5931 35.1825C47.3279 35.6371 46.9633 35.9875 46.4993 36.2337C46.0353 36.4775 45.5025 36.5994 44.9012 36.5994C44.2312 36.5994 43.6429 36.4491 43.1363 36.1484C42.632 35.8454 42.2378 35.4157 41.9538 34.8594C41.672 34.3007 41.5312 33.6378 41.5312 32.8707C41.5312 32.2836 41.6141 31.7592 41.7798 31.2976C41.9479 30.8359 42.1823 30.4441 42.483 30.1222C42.7836 29.7978 43.1363 29.5516 43.5411 29.3835C43.9459 29.2131 44.3864 29.1278 44.8622 29.1278C45.2647 29.1278 45.6399 29.187 45.9879 29.3054C46.336 29.4214 46.6448 29.5871 46.9147 29.8026C47.1869 30.018 47.4107 30.2737 47.5859 30.5696C47.761 30.8655 47.876 31.1922 47.9304 31.5497H46.5881ZM49.9648 36.5V29.2273H52.692C53.2507 29.2273 53.7195 29.3243 54.0983 29.5185C54.4794 29.7126 54.7671 29.9848 54.9612 30.3352C55.1577 30.6832 55.256 31.0893 55.256 31.5533C55.256 32.0196 55.1564 32.4245 54.9576 32.7678C54.7611 33.1087 54.4711 33.3726 54.0876 33.5597C53.7041 33.7443 53.233 33.8366 52.6743 33.8366H50.7318V32.7429H52.4967C52.8234 32.7429 53.0909 32.6979 53.2993 32.608C53.5076 32.5156 53.6614 32.3819 53.7608 32.2067C53.8626 32.0291 53.9136 31.8113 53.9136 31.5533C53.9136 31.2952 53.8626 31.075 53.7608 30.8928C53.659 30.7081 53.5041 30.5684 53.2957 30.4737C53.0874 30.3767 52.8187 30.3281 52.4896 30.3281H51.2822V36.5H49.9648ZM53.7219 33.2045L55.5223 36.5H54.0521L52.2836 33.2045H53.7219ZM63.6671 32.8636C63.6671 33.6473 63.5204 34.3184 63.2268 34.8771C62.9356 35.4335 62.5379 35.8596 62.0336 36.1555C61.5317 36.4515 60.9625 36.5994 60.3256 36.5994C59.6887 36.5994 59.1181 36.4515 58.6139 36.1555C58.112 35.8572 57.7143 35.4299 57.4207 34.8736C57.1295 34.3149 56.984 33.6449 56.984 32.8636C56.984 32.08 57.1295 31.41 57.4207 30.8537C57.7143 30.295 58.112 29.8677 58.6139 29.5717C59.1181 29.2758 59.6887 29.1278 60.3256 29.1278C60.9625 29.1278 61.5317 29.2758 62.0336 29.5717C62.5379 29.8677 62.9356 30.295 63.2268 30.8537C63.5204 31.41 63.6671 32.08 63.6671 32.8636ZM62.3427 32.8636C62.3427 32.312 62.2563 31.8468 62.0834 31.468C61.913 31.0869 61.6761 30.7992 61.3731 30.6051C61.0702 30.4086 60.7209 30.3104 60.3256 30.3104C59.9303 30.3104 59.5811 30.4086 59.278 30.6051C58.975 30.7992 58.7371 31.0869 58.5643 31.468C58.3938 31.8468 58.3086 32.312 58.3086 32.8636C58.3086 33.4152 58.3938 33.8816 58.5643 34.2628C58.7371 34.6416 58.975 34.9292 59.278 35.1257C59.5811 35.3198 59.9303 35.4169 60.3256 35.4169C60.7209 35.4169 61.0702 35.3198 61.3731 35.1257C61.6761 34.9292 61.913 34.6416 62.0834 34.2628C62.2563 33.8816 62.3427 33.4152 62.3427 32.8636ZM66.9577 36.5L64.9052 29.2273H66.3221L67.6325 34.5717H67.7L69.0991 29.2273H70.3882L71.7908 34.5753H71.8548L73.1652 29.2273H74.5821L72.5294 36.5H71.2298L69.7738 31.397H69.7169L68.2575 36.5H66.9577ZM78.8789 29.2273H80.3669L82.146 32.4446H82.2169L83.996 29.2273H85.4839L82.8383 33.7869V36.5H81.5245V33.7869L78.8789 29.2273ZM93.2055 32.8636C93.2055 33.6473 93.0587 34.3184 92.7652 34.8771C92.474 35.4335 92.0763 35.8596 91.572 36.1555C91.0701 36.4515 90.5007 36.5994 89.8639 36.5994C89.2271 36.5994 88.6565 36.4515 88.1523 36.1555C87.6504 35.8572 87.2526 35.4299 86.9591 34.8736C86.6679 34.3149 86.5222 33.6449 86.5222 32.8636C86.5222 32.08 86.6679 31.41 86.9591 30.8537C87.2526 30.295 87.6504 29.8677 88.1523 29.5717C88.6565 29.2758 89.2271 29.1278 89.8639 29.1278C90.5007 29.1278 91.0701 29.2758 91.572 29.5717C92.0763 29.8677 92.474 30.295 92.7652 30.8537C93.0587 31.41 93.2055 32.08 93.2055 32.8636ZM91.881 32.8636C91.881 32.312 91.7944 31.8468 91.6217 31.468C91.4513 31.0869 91.2145 30.7992 90.9115 30.6051C90.6085 30.4086 90.2593 30.3104 89.8639 30.3104C89.4685 30.3104 89.1194 30.4086 88.8163 30.6051C88.5133 30.7992 88.2753 31.0869 88.1024 31.468C87.932 31.8468 87.8468 32.312 87.8468 32.8636C87.8468 33.4152 87.932 33.8816 88.1024 34.2628C88.2753 34.6416 88.5133 34.9292 88.8163 35.1257C89.1194 35.3198 89.4685 35.4169 89.8639 35.4169C90.2593 35.4169 90.6085 35.3198 90.9115 35.1257C91.2145 34.9292 91.4513 34.6416 91.6217 34.2628C91.7944 33.8816 91.881 33.4152 91.881 32.8636ZM99.7355 29.2273H101.053V33.9787C101.053 34.4995 100.93 34.9576 100.684 35.353C100.44 35.7483 100.097 36.0573 99.6538 36.2798C99.2111 36.5 98.6939 36.6101 98.1021 36.6101C97.5079 36.6101 96.9894 36.5 96.5467 36.2798C96.104 36.0573 95.7607 35.7483 95.5169 35.353C95.273 34.9576 95.151 34.4995 95.151 33.9787V29.2273H96.4686V33.8686C96.4686 34.1716 96.5348 34.4415 96.6674 34.6783C96.8023 34.915 96.9917 35.1009 97.2355 35.2358C97.4794 35.3684 97.7682 35.4347 98.1021 35.4347C98.4359 35.4347 98.7247 35.3684 98.9686 35.2358C99.2148 35.1009 99.4042 34.915 99.5367 34.6783C99.6693 34.4415 99.7355 34.1716 99.7355 33.8686V29.2273ZM103.185 36.5V29.2273H105.913C106.471 29.2273 106.94 29.3243 107.319 29.5185C107.7 29.7126 107.988 29.9848 108.182 30.3352C108.378 30.6832 108.477 31.0893 108.477 31.5533C108.477 32.0196 108.377 32.4245 108.178 32.7678C107.982 33.1087 107.692 33.3726 107.308 33.5597C106.925 33.7443 106.454 33.8366 105.895 33.8366H103.953V32.7429H105.717C106.044 32.7429 106.312 32.6979 106.52 32.608C106.728 32.5156 106.882 32.3819 106.982 32.2067C107.083 32.0291 107.134 31.8113 107.134 31.5533C107.134 31.2952 107.083 31.075 106.982 30.8928C106.88 30.7081 106.725 30.5684 106.516 30.4737C106.308 30.3767 106.039 30.3281 105.71 30.3281H104.503V36.5H103.185ZM106.943 33.2045L108.743 36.5H107.273L105.504 33.2045H106.943ZM117.522 31.2266C117.489 30.9164 117.349 30.675 117.103 30.5021C116.859 30.3293 116.542 30.2429 116.152 30.2429C115.877 30.2429 115.641 30.2843 115.445 30.3672C115.248 30.45 115.098 30.5625 114.994 30.7045C114.89 30.8466 114.836 31.0088 114.834 31.1911C114.834 31.3426 114.868 31.474 114.937 31.5852C115.008 31.6965 115.104 31.7912 115.225 31.8693C115.345 31.9451 115.479 32.009 115.626 32.0611C115.773 32.1132 115.921 32.157 116.07 32.1925L116.752 32.3629C117.026 32.4268 117.29 32.5133 117.544 32.6222C117.799 32.7311 118.028 32.8684 118.229 33.0341C118.433 33.1998 118.594 33.3999 118.712 33.6342C118.83 33.8686 118.889 34.1432 118.889 34.4581C118.889 34.8842 118.781 35.2595 118.563 35.5838C118.345 35.9058 118.03 36.1579 117.618 36.3402C117.209 36.5201 116.713 36.6101 116.13 36.6101C115.564 36.6101 115.073 36.5225 114.656 36.3473C114.242 36.1721 113.918 35.9164 113.683 35.5803C113.451 35.2441 113.326 34.8345 113.307 34.3516H114.603C114.622 34.6049 114.7 34.8156 114.838 34.9837C114.975 35.1518 115.154 35.2772 115.374 35.3601C115.596 35.4429 115.845 35.4844 116.12 35.4844C116.406 35.4844 116.657 35.4418 116.872 35.3565C117.09 35.2689 117.261 35.1482 117.384 34.9943C117.507 34.8381 117.57 34.6558 117.572 34.4474C117.57 34.258 117.514 34.1018 117.405 33.9787C117.296 33.8532 117.143 33.7491 116.947 33.6662C116.753 33.581 116.526 33.5052 116.265 33.4389L115.438 33.2259C114.839 33.072 114.365 32.8388 114.017 32.5263C113.672 32.2114 113.499 31.7936 113.499 31.2727C113.499 30.8442 113.615 30.469 113.847 30.147C114.081 29.825 114.4 29.5753 114.802 29.3977C115.205 29.2178 115.66 29.1278 116.169 29.1278C116.685 29.1278 117.138 29.2178 117.526 29.3977C117.916 29.5753 118.223 29.8227 118.446 30.1399C118.668 30.4548 118.783 30.817 118.79 31.2266H117.522ZM120.764 36.5V29.2273H122.081V32.5689H122.17L125.008 29.2273H126.616L123.804 32.4908L126.641 36.5H125.057L122.888 33.3821L122.081 34.3338V36.5H120.764ZM129.549 29.2273V36.5H128.232V29.2273H129.549ZM131.676 36.5V29.2273H132.993V35.3956H136.196V36.5H131.676ZM138.04 36.5V29.2273H139.357V35.3956H142.56V36.5H138.04ZM148.356 31.2266C148.323 30.9164 148.183 30.675 147.937 30.5021C147.693 30.3293 147.376 30.2429 146.986 30.2429C146.711 30.2429 146.475 30.2843 146.279 30.3672C146.082 30.45 145.932 30.5625 145.828 30.7045C145.724 30.8466 145.67 31.0088 145.668 31.1911C145.668 31.3426 145.702 31.474 145.771 31.5852C145.842 31.6965 145.938 31.7912 146.059 31.8693C146.179 31.9451 146.313 32.009 146.46 32.0611C146.607 32.1132 146.755 32.157 146.904 32.1925L147.586 32.3629C147.86 32.4268 148.124 32.5133 148.378 32.6222C148.633 32.7311 148.862 32.8684 149.063 33.0341C149.267 33.1998 149.428 33.3999 149.546 33.6342C149.664 33.8686 149.723 34.1432 149.723 34.4581C149.723 34.8842 149.615 35.2595 149.397 35.5838C149.179 35.9058 148.864 36.1579 148.452 36.3402C148.043 36.5201 147.547 36.6101 146.964 36.6101C146.398 36.6101 145.907 36.5225 145.49 36.3473C145.076 36.1721 144.752 35.9164 144.517 35.5803C144.285 35.2441 144.16 34.8345 144.141 34.3516H145.437C145.456 34.6049 145.534 34.8156 145.672 34.9837C145.809 35.1518 145.988 35.2772 146.208 35.3601C146.43 35.4429 146.679 35.4844 146.954 35.4844C147.24 35.4844 147.491 35.4418 147.706 35.3565C147.924 35.2689 148.095 35.1482 148.218 34.9943C148.341 34.8381 148.404 34.6558 148.406 34.4474C148.404 34.258 148.348 34.1018 148.239 33.9787C148.13 33.8532 147.977 33.7491 147.781 33.6662C147.587 33.581 147.36 33.5052 147.099 33.4389L146.272 33.2259C145.673 33.072 145.199 32.8388 144.851 32.5263C144.506 32.2114 144.333 31.7936 144.333 31.2727C144.333 30.8442 144.449 30.469 144.681 30.147C144.915 29.825 145.234 29.5753 145.636 29.3977C146.039 29.2178 146.494 29.1278 147.003 29.1278C147.519 29.1278 147.972 29.2178 148.36 29.3977C148.75 29.5753 149.057 29.8227 149.28 30.1399C149.502 30.4548 149.617 30.817 149.624 31.2266H148.356Z" fill="#545D70"/>
<path d="M0 19.5C0 9.83502 7.83502 2 17.5 2C27.165 2 35 9.83502 35 19.5C35 29.165 27.165 37 17.5 37C7.83502 37 0 29.165 0 19.5Z" fill="#6059F7"/>
<mask id="mask1_6512_6429" style="mask-type:alpha" maskUnits="userSpaceOnUse" x="0" y="2" width="35" height="35">
<path d="M0 19.5C0 9.83502 7.83502 2 17.5 2C27.165 2 35 9.83502 35 19.5C35 29.165 27.165 37 17.5 37C7.83502 37 0 29.165 0 19.5Z" fill="#6059F7"/>
</mask>
<g mask="url(#mask1_6512_6429)">
<path d="M13.4169 21.3158C15.161 21.9096 17.0646 20.9527 17.6687 19.1784C18.2729 17.404 17.3488 15.4843 15.6048 14.8904C13.8607 14.2966 11.9571 15.2535 11.353 17.0278C10.7488 18.8021 11.6729 20.7219 13.4169 21.3158Z" fill="white"/>
<path d="M17.2605 12.2647L16.9375 11.2034L17.3639 12.2262L17.2605 12.2647Z" fill="white"/>
<path d="M17.4945 12.6114L17.468 12.3401L17.3141 12.1257L17.2031 12.3296L17.223 12.5782L17.2448 12.8177L17.3964 12.9587L17.5108 12.8321L17.4945 12.6114ZM17.3174 12.458C17.3103 12.4354 17.3087 12.4114 17.3127 12.3879C17.3168 12.3645 17.3264 12.3423 17.3407 12.3233C17.3668 12.3999 17.3446 12.5072 17.3174 12.458ZM17.2745 12.7444C17.2679 12.7217 17.2666 12.6978 17.2707 12.6744C17.2747 12.6511 17.284 12.6289 17.2978 12.6097C17.324 12.6863 17.3017 12.7935 17.2745 12.7444ZM17.4003 12.6228C17.3932 12.6002 17.3916 12.5762 17.3956 12.5527C17.3997 12.5293 17.4093 12.5071 17.4235 12.4881C17.447 12.5589 17.4236 12.6658 17.4003 12.6228ZM17.392 12.811C17.3849 12.7886 17.3832 12.7648 17.3872 12.7415C17.3912 12.7182 17.4007 12.6962 17.4149 12.6774C17.4411 12.754 17.4189 12.8612 17.392 12.811Z" fill="white"/>
<path d="M17.3789 11.1093C17.3789 11.1093 15.2067 11.0611 12.3493 9.55026C12.3493 9.55026 9.98237 13.7099 8.05469 14.9222C8.05469 14.9222 9.4911 14.4443 10.5462 14.4409L10.5779 14.407L10.5917 14.3875C10.6065 14.3648 10.6293 14.3363 10.659 14.298C10.7176 14.2237 10.8043 14.1191 10.9154 14.0022C10.9719 13.9408 11.032 13.8807 11.0956 13.8218C11.1629 13.7601 11.2332 13.6934 11.3098 13.6288C11.3865 13.5643 11.4667 13.4997 11.5494 13.4348C11.6321 13.3699 11.72 13.3104 11.8056 13.2476C11.8911 13.1849 11.984 13.1319 12.0709 13.0757L12.3352 12.9239L12.5886 12.7938C12.6686 12.751 12.7491 12.7204 12.8196 12.6876C12.8902 12.6548 12.96 12.6242 13.0184 12.6029L13.1726 12.5442L13.309 12.4928L13.1772 12.5518L13.0253 12.621C12.9662 12.6444 12.9038 12.6812 12.8336 12.7165C12.7633 12.7518 12.6902 12.7885 12.6092 12.8347L12.3663 12.9792L12.1168 13.136C12.0331 13.197 11.9476 13.2561 11.8653 13.3199C11.783 13.3838 11.7024 13.4494 11.6243 13.5183C11.5462 13.5872 11.4706 13.6521 11.4007 13.7214C11.3308 13.7907 11.2644 13.8563 11.2021 13.9209C11.1397 13.9855 11.0855 14.0504 11.0357 14.106C10.9345 14.2251 10.8585 14.3297 10.8063 14.4026C10.7806 14.4398 10.7614 14.4683 10.7501 14.4874L10.7302 14.5181L10.705 14.5676C10.8204 14.6802 10.9033 14.8228 10.9447 14.9801C10.9861 15.1375 10.9845 15.3037 10.9402 15.4611C10.9402 15.4611 13.1051 13.3916 16.0202 13.7701C16.0202 13.7701 15.956 12.1092 17.3789 11.1093Z" fill="white"/>
<path d="M8.63331 22.2967C8.68075 22.3841 9.19876 22.4191 9.2848 22.4351C9.85668 22.5396 10.4341 22.612 11.0146 22.6518C12.6853 22.7698 14.4184 22.6419 16.0044 22.0421C17.3832 21.5204 18.41 20.9091 19.602 20.0603C21.0807 19.0045 22.5458 17.4026 23.9433 16.3409C22.239 20.7001 19.9386 24.8 17.1102 28.5192C14.515 31.9121 11.4237 34.9681 7.80094 37.2157C6.26898 38.1724 4.64485 38.9663 2.95466 39.5846C2.95466 39.5846 8.68692 35.9013 12.6982 29.6303C12.6982 29.6303 5.64704 36.0532 2.67969 36.3724C2.67969 36.3724 6.98661 34.2127 8.64848 28.0095C8.64848 28.0095 15.1942 27.0037 17.2554 23.8219C17.2554 23.8219 14.7093 25.4933 9.85152 24.5113L8.63331 22.2967Z" fill="white"/>
<path d="M18.8711 18.5773L19.2316 17.0091L27.3549 11.2098L26.1654 10.91L28.643 10.3019L27.5739 12.6986L27.497 11.4553L20.419 18.5291L18.8711 18.5773Z" fill="white"/>
</g>
</g>
</g>
<defs>
<clipPath id="clip0_6512_6429">
<rect width="153" height="38" fill="white" transform="translate(0 0.5)"/>
</clipPath>
</defs>
</svg>
