<svg width="29" height="21" viewBox="0 0 29 21" fill="none" xmlns="http://www.w3.org/2000/svg">
<path d="M26.4336 0.169556H2.93359C1.82903 0.169556 0.933594 1.12469 0.933594 2.30289V18.0363C0.933594 19.2145 1.82903 20.1696 2.93359 20.1696H26.4336C27.5382 20.1696 28.4336 19.2145 28.4336 18.0363V2.30289C28.4336 1.12469 27.5382 0.169556 26.4336 0.169556ZM14.6836 11.9613L3.14859 1.50289H26.2186L14.6836 11.9613ZM2.18359 2.37789L9.71439 9.20576L2.18359 17.8565V2.37789ZM10.6677 10.0702L14.2788 13.3442C14.3955 13.45 14.5395 13.5029 14.6836 13.5029C14.8277 13.5029 14.9717 13.45 15.0884 13.3442L18.6995 10.0702L26.3307 18.8363H3.03653L10.6677 10.0702ZM19.6528 9.20576L27.1836 2.37789V17.8565L19.6528 9.20576Z" fill="white"/>
</svg>
