<svg width="13" height="18" viewBox="0 0 13 18" fill="none" xmlns="http://www.w3.org/2000/svg">
<path d="M6.18 0.419966C5.06 0.419966 4.02 0.699966 3.06 1.25997C2.1 1.81997 1.35 2.56997 0.81 3.50997C0.27 4.44997 0 5.47997 0 6.59997C0 7.99997 0.94 10.16 2.82 13.08C3.82 14.56 4.84 15.94 5.88 17.22C5.96 17.3 6.06 17.34 6.18 17.34C6.3 17.34 6.4 17.3 6.48 17.22C7.52 15.94 8.54 14.56 9.54 13.08C11.42 10.16 12.36 7.99997 12.36 6.59997C12.36 5.47997 12.09 4.44997 11.55 3.50997C11.01 2.56997 10.26 1.81997 9.3 1.25997C8.34 0.699966 7.3 0.419966 6.18 0.419966ZM6.18 16.38C4.98 14.86 3.92 13.4 3 12C1.48 9.55997 0.72 7.75997 0.72 6.59997C0.72 5.63997 0.96 4.73997 1.44 3.89997C1.92 3.05997 2.58 2.38997 3.42 1.88997C4.26 1.38997 5.18 1.13997 6.18 1.13997C7.18 1.13997 8.1 1.38997 8.94 1.88997C9.78 2.38997 10.44 3.05997 10.92 3.89997C11.4 4.73997 11.64 5.63997 11.64 6.59997C11.64 7.75997 10.88 9.55997 9.36 12C8.44 13.4 7.38 14.86 6.18 16.38ZM6.18 3.89997C5.5 3.89997 4.91 4.14997 4.41 4.64997C3.91 5.14997 3.66 5.74997 3.66 6.44997C3.66 7.14997 3.91 7.73997 4.41 8.21997C4.91 8.69997 5.5 8.93997 6.18 8.93997C6.86 8.93997 7.45 8.69997 7.95 8.21997C8.45 7.73997 8.7 7.14997 8.7 6.44997C8.7 5.74997 8.45 5.14997 7.95 4.64997C7.45 4.14997 6.86 3.89997 6.18 3.89997ZM6.18 8.21997C5.66 8.21997 5.23 8.04997 4.89 7.70997C4.55 7.36997 4.38 6.94997 4.38 6.44997C4.38 5.94997 4.55 5.51997 4.89 5.15997C5.23 4.79997 5.66 4.61997 6.18 4.61997C6.7 4.61997 7.13 4.79997 7.47 5.15997C7.81 5.51997 7.98 5.94997 7.98 6.44997C7.98 6.94997 7.81 7.36997 7.47 7.70997C7.13 8.04997 6.7 8.21997 6.18 8.21997Z" fill="#5751E1"/>
</svg>
