<svg width="23" height="31" viewBox="0 0 23 31" fill="none" xmlns="http://www.w3.org/2000/svg">
<path d="M11.434 0.609497C8.51537 0.612798 5.71735 1.77364 3.65364 3.83736C1.58993 5.90107 0.429081 8.69912 0.425781 11.6176C0.425781 17.5055 10.5114 29.8535 10.9407 30.3764C11.0006 30.4493 11.0759 30.508 11.1612 30.5483C11.2465 30.5886 11.3396 30.6095 11.434 30.6095C11.5283 30.6095 11.6214 30.5886 11.7067 30.5483C11.792 30.508 11.8673 30.4493 11.9272 30.3764C12.3565 29.8535 22.4421 17.5055 22.4421 11.6176C22.4388 8.69912 21.278 5.90107 19.2142 3.83736C17.1505 1.77364 14.3525 0.612798 11.434 0.609497ZM11.434 28.951C9.38997 26.3713 1.70238 16.3528 1.70238 11.6177C1.70238 10.3397 1.95409 9.07424 2.44315 7.89355C2.9322 6.71287 3.64902 5.64007 4.55268 4.73641C5.45634 3.83275 6.52914 3.11593 7.70987 2.62688C8.89047 2.13782 10.156 1.88611 11.434 1.88611C12.7119 1.88611 13.9774 2.13782 15.1581 2.62688C16.3387 3.11593 17.4115 3.83275 18.3152 4.73641C19.2189 5.64007 19.9357 6.71287 20.4247 7.89355C20.9138 9.07424 21.1655 10.3397 21.1655 11.6177C21.1655 16.3528 13.4779 26.3713 11.434 28.951Z" fill="white"/>
</svg>
