<svg width="31" height="31" viewBox="0 0 31 31" fill="none" xmlns="http://www.w3.org/2000/svg">
<path d="M24.4057 18.9734C23.7907 18.3339 23.0488 17.992 22.2625 17.992C21.4826 17.992 20.7343 18.3276 20.0939 18.9671L18.0902 20.9616C17.9253 20.8729 17.7604 20.7906 17.6019 20.7083C17.3736 20.5943 17.1581 20.4867 16.9742 20.3727C15.0973 19.1824 13.3915 17.6311 11.7556 15.624C10.963 14.6235 10.4303 13.7814 10.0435 12.9267C10.5635 12.4518 11.0454 11.9579 11.5146 11.483C11.6922 11.3057 11.8697 11.1221 12.0473 10.9448C13.3789 9.61517 13.3789 7.89295 12.0473 6.56329L10.3162 4.83473C10.1196 4.63845 9.91671 4.43583 9.72648 4.23322C9.34602 3.84065 8.94654 3.43542 8.53438 3.05552C7.91931 2.44768 7.18377 2.12476 6.41017 2.12476C5.63658 2.12476 4.88835 2.44768 4.25426 3.05552C4.24792 3.06185 4.24792 3.06185 4.24158 3.06818L2.08566 5.23996C1.27403 6.05042 0.811141 7.03817 0.709686 8.1842C0.557504 10.0331 1.10282 11.7553 1.52132 12.8823C2.54855 15.6493 4.08305 18.2136 6.37213 20.9616C9.14945 24.2731 12.4911 26.8881 16.3084 28.7306C17.7668 29.4207 19.7134 30.2375 21.8884 30.3768C22.0215 30.3832 22.161 30.3895 22.2879 30.3895C23.7526 30.3895 24.9828 29.864 25.9466 28.8192C25.9529 28.8066 25.9656 28.8002 25.9719 28.7876C26.3017 28.3887 26.6821 28.0278 27.0816 27.6415C27.3543 27.3819 27.6333 27.1097 27.9059 26.8247C28.5337 26.1726 28.8634 25.4128 28.8634 24.634C28.8634 23.8488 28.5273 23.0954 27.8869 22.4622L24.4057 18.9734ZM26.6758 25.6407C26.6694 25.6407 26.6694 25.6471 26.6758 25.6407C26.4285 25.9067 26.1748 26.1473 25.9022 26.4132C25.49 26.8058 25.0715 27.2173 24.6784 27.6795C24.038 28.3634 23.2834 28.6863 22.2942 28.6863C22.1991 28.6863 22.0976 28.6863 22.0025 28.6799C20.1193 28.5596 18.3692 27.8252 17.0566 27.1983C13.4676 25.4634 10.3162 23.0004 7.69738 19.8789C5.53513 17.2765 4.0894 14.8705 3.13192 12.2871C2.54221 10.7106 2.32662 9.4822 2.42173 8.3235C2.48514 7.58269 2.77048 6.96852 3.29678 6.44298L5.45904 4.28387C5.76974 3.99261 6.09947 3.83432 6.42286 3.83432C6.82233 3.83432 7.14572 4.07493 7.34863 4.27754C7.35497 4.28387 7.36131 4.2902 7.36765 4.29654C7.75445 4.65744 8.12222 5.03101 8.50902 5.42991C8.70559 5.63253 8.9085 5.83514 9.11141 6.04409L10.8425 7.77264C11.5146 8.4438 11.5146 9.06431 10.8425 9.73547C10.6586 9.91909 10.4811 10.1027 10.2972 10.28C9.76452 10.8245 9.25725 11.3311 8.70559 11.8249C8.69291 11.8376 8.68023 11.8439 8.67389 11.8566C8.12857 12.4011 8.23002 12.933 8.34416 13.2939C8.3505 13.3129 8.35684 13.3319 8.36318 13.3509C8.81339 14.4399 9.44748 15.4657 10.4113 16.6877L10.4176 16.694C12.1677 18.8468 14.013 20.5247 16.0484 21.81C16.3084 21.9747 16.5747 22.1076 16.8283 22.2343C17.0566 22.3482 17.2722 22.4559 17.4561 22.5698C17.4814 22.5825 17.5068 22.6015 17.5322 22.6142C17.7478 22.7218 17.9507 22.7725 18.1599 22.7725C18.6862 22.7725 19.0159 22.4432 19.1237 22.3356L21.2923 20.1701C21.5079 19.9548 21.8503 19.6952 22.2498 19.6952C22.643 19.6952 22.9663 19.9422 23.1629 20.1575C23.1693 20.1638 23.1693 20.1638 23.1756 20.1701L26.6694 23.6589C27.3226 24.3047 27.3226 24.9696 26.6758 25.6407Z" fill="white"/>
<path d="M16.8999 7.52575C18.5613 7.80435 20.0704 8.58948 21.2752 9.7925C22.48 10.9956 23.2599 12.5025 23.5452 14.1614C23.615 14.5793 23.9764 14.8706 24.3886 14.8706C24.4393 14.8706 24.4837 14.8642 24.5344 14.8579C25.0037 14.7819 25.3144 14.3387 25.2383 13.8702C24.8959 11.863 23.9447 10.0331 22.4926 8.58315C21.0406 7.13319 19.208 6.18343 17.198 5.84152C16.7287 5.76554 16.2912 6.07579 16.2088 6.53801C16.1264 7.00022 16.4307 7.44977 16.8999 7.52575Z" fill="white"/>
<path d="M30.6716 13.6231C30.1073 10.318 28.5474 7.31045 26.1506 4.91707C23.7537 2.52368 20.7418 0.966079 17.4318 0.402558C16.9689 0.320246 16.5314 0.636831 16.4489 1.09905C16.3729 1.5676 16.6836 2.00448 17.1528 2.0868C20.1077 2.587 22.8026 3.98631 24.9458 6.12009C27.089 8.26021 28.484 10.9512 28.985 13.9017C29.0547 14.3196 29.4161 14.6109 29.8283 14.6109C29.879 14.6109 29.9234 14.6045 29.9741 14.5982C30.437 14.5286 30.7541 14.0854 30.6716 13.6231Z" fill="white"/>
</svg>
