<svg width="18" height="18" viewBox="0 0 18 18" fill="none" xmlns="http://www.w3.org/2000/svg">
<path d="M14.7023 8.30511H14.2936V4.55389C14.2936 4.27638 14.1872 4.01023 13.9979 3.814C13.8087 3.61777 13.5519 3.50753 13.2842 3.50753H10.2563C10.2244 2.87772 9.98001 2.27957 9.56581 1.81766C9.15161 1.35574 8.59402 1.05944 7.99046 0.980549C7.64524 0.943709 7.2964 0.981079 6.96575 1.09035C6.63509 1.19962 6.32974 1.37842 6.06876 1.61559C5.80779 1.85275 5.59682 2.14318 5.44902 2.46871C5.30123 2.79425 5.21981 3.14789 5.20983 3.50753H1.67727C1.40959 3.50753 1.15287 3.61777 0.963579 3.814C0.774299 4.01023 0.667969 4.27638 0.667969 4.55389V8.8283H2.08604C2.47435 8.8166 2.8532 8.95367 3.15017 9.21329C3.44715 9.47295 3.64143 9.83685 3.69588 10.2356C3.71552 10.4544 3.69064 10.675 3.62283 10.8832C3.55502 11.0914 3.44581 11.2825 3.30225 11.4442C3.16116 11.6077 2.98855 11.7388 2.79558 11.8289C2.60261 11.919 2.39356 11.9662 2.18192 11.9673H0.667969V16.587C0.667969 16.8646 0.774299 17.1307 0.963579 17.3269C1.15287 17.5232 1.40959 17.6334 1.67727 17.6334H13.2842C13.5519 17.6334 13.8087 17.5232 13.9979 17.3269C14.1872 17.1307 14.2936 16.8646 14.2936 16.587V13.5369H14.7982C15.1524 13.5388 15.503 13.4634 15.8272 13.3156C16.1514 13.1678 16.442 12.9508 16.68 12.6789C16.918 12.407 17.0981 12.0862 17.2086 11.7373C17.3191 11.3885 17.3576 11.0194 17.3215 10.6542C17.2397 9.99735 16.9274 9.39475 16.4443 8.96148C15.9612 8.52818 15.3411 8.29452 14.7023 8.30511ZM15.9185 11.9673C15.7774 12.1309 15.6048 12.2619 15.4119 12.3521C15.2189 12.4422 15.0098 12.4893 14.7982 12.4905H13.2842V16.587H1.67727V13.0137H2.18192C2.5361 13.0156 2.88669 12.9402 3.2109 12.7924C3.53511 12.6446 3.82567 12.4277 4.06368 12.1557C4.30169 11.8838 4.48181 11.563 4.59234 11.2142C4.70286 10.8653 4.74131 10.4962 4.70518 10.131C4.62339 9.47415 4.31113 8.87161 3.82802 8.4383C3.3449 8.005 2.72477 7.77134 2.08604 7.78193H1.67727V4.55389H6.21913V3.59647C6.22027 3.37706 6.26577 3.16033 6.35269 2.96027C6.43962 2.76021 6.56603 2.58128 6.72379 2.435C6.87972 2.28617 7.06406 2.17295 7.26487 2.10265C7.46568 2.03235 7.67849 2.00655 7.88953 2.02692C8.27417 2.08336 8.62526 2.28478 8.87569 2.59266C9.12611 2.90054 9.25831 3.2933 9.24701 3.69587V4.55389H13.2842V9.35145H14.7023C15.0906 9.33975 15.4695 9.47685 15.7665 9.73645C16.0634 9.99615 16.2577 10.36 16.3122 10.7588C16.3318 10.9776 16.3069 11.1982 16.2391 11.4064C16.1713 11.6146 16.0621 11.8057 15.9185 11.9673Z" fill="#7F7E97"/>
</svg>
