<svg width="156" height="39" viewBox="0 0 156 39" fill="none" xmlns="http://www.w3.org/2000/svg">
<g clip-path="url(#clip0_6512_6750)">
<g clip-path="url(#clip1_6512_6750)">
<mask id="mask0_6512_6750" style="mask-type:luminance" maskUnits="userSpaceOnUse" x="0" y="0" width="156" height="39">
<path d="M156 0.800049H0V38.8H156V0.800049Z" fill="white"/>
</mask>
<g mask="url(#mask0_6512_6750)">
<path d="M52.7869 9.72726C52.7037 8.88811 52.3465 8.23622 51.7154 7.77156C51.0843 7.30691 50.2279 7.07459 49.146 7.07459C48.4109 7.07459 47.7902 7.17862 47.2839 7.38667C46.7777 7.58779 46.3893 7.86866 46.1188 8.22928C45.8553 8.5899 45.7235 8.99907 45.7235 9.45679C45.7097 9.83822 45.7894 10.1711 45.9628 10.4554C46.1431 10.7398 46.3893 10.986 46.7014 11.194C47.0135 11.3951 47.3741 11.572 47.7832 11.7246C48.1924 11.8702 48.6293 11.995 49.094 12.0991L51.0081 12.5568C51.9374 12.7648 52.7904 13.0422 53.5671 13.389C54.3438 13.7357 55.0165 14.1622 55.5852 14.6685C56.1539 15.1748 56.5943 15.7712 56.9063 16.4578C57.2254 17.1443 57.3883 17.9315 57.3953 18.8191C57.3883 20.1229 57.0554 21.2534 56.3966 22.2104C55.7447 23.1605 54.8015 23.8991 53.5671 24.4262C52.3396 24.9463 50.859 25.2064 49.1252 25.2064C47.4053 25.2064 45.9073 24.9428 44.6313 24.4158C43.3621 23.8887 42.3704 23.1085 41.6561 22.0752C40.9487 21.0349 40.5777 19.7484 40.543 18.2158H44.9017C44.9503 18.9301 45.1549 19.5265 45.5155 20.005C45.883 20.4766 46.372 20.8338 46.9822 21.0765C47.5995 21.3123 48.2964 21.4302 49.0732 21.4302C49.836 21.4302 50.4983 21.3192 51.0601 21.0973C51.6287 20.8754 52.0691 20.5668 52.3812 20.1715C52.6933 19.7762 52.8493 19.3219 52.8493 18.8087C52.8493 18.3302 52.7072 17.928 52.4228 17.602C52.1454 17.2761 51.7362 16.9987 51.1953 16.7698C50.6613 16.541 50.0059 16.3329 49.2292 16.1457L46.9094 15.5631C45.1132 15.1262 43.695 14.4431 42.6548 13.5138C41.6145 12.5845 41.0978 11.3327 41.1048 9.75847C41.0978 8.46854 41.4411 7.34159 42.1346 6.37762C42.8351 5.41364 43.7956 4.66118 45.0161 4.12025C46.2367 3.57931 47.6237 3.30884 49.1772 3.30884C50.7584 3.30884 52.1385 3.57931 53.3174 4.12025C54.5033 4.66118 55.4257 5.41364 56.0845 6.37762C56.7434 7.34159 57.0832 8.45814 57.104 9.72726H52.7869Z" fill="white"/>
<path d="M64.6522 20.3067L64.6626 14.991H65.3075L70.4256 8.92625H75.5125L68.6364 16.9571H67.5857L64.6522 20.3067ZM60.6367 24.9047V3.6001H65.0683V24.9047H60.6367ZM70.6233 24.9047L65.9213 17.9453L68.8756 14.8141L75.8142 24.9047H70.6233Z" fill="white"/>
<path d="M77.979 24.9047V8.92631H82.4105V24.9047H77.979ZM80.2051 6.86659C79.5463 6.86659 78.9811 6.64813 78.5095 6.21122C78.0449 5.76738 77.8125 5.23684 77.8125 4.61962C77.8125 4.00933 78.0449 3.48574 78.5095 3.04883C78.9811 2.60498 79.5463 2.38306 80.2051 2.38306C80.864 2.38306 81.4257 2.60498 81.8904 3.04883C82.3619 3.48574 82.5977 4.00933 82.5977 4.61962C82.5977 5.23684 82.3619 5.76738 81.8904 6.21122C81.4257 6.64813 80.864 6.86659 80.2051 6.86659Z" fill="white"/>
<path d="M90.6854 3.6001V24.9047H86.2539V3.6001H90.6854Z" fill="white"/>
<path d="M98.9588 3.6001V24.9047H94.5273V3.6001H98.9588Z" fill="white"/>
<path d="M117.013 10.4866C116.868 9.98039 116.663 9.53308 116.4 9.14471C116.136 8.74941 115.814 8.41653 115.432 8.14606C115.058 7.86866 114.628 7.65714 114.142 7.5115C113.664 7.36586 113.133 7.29305 112.551 7.29305C111.462 7.29305 110.505 7.56351 109.68 8.10445C108.861 8.64539 108.223 9.43252 107.766 10.4658C107.308 11.4922 107.079 12.7475 107.079 14.2316C107.079 15.7157 107.304 16.9779 107.755 18.0181C108.206 19.0584 108.844 19.8525 109.669 20.4003C110.495 20.9413 111.469 21.2118 112.592 21.2118C113.612 21.2118 114.482 21.0314 115.203 20.6708C115.932 20.3033 116.486 19.7866 116.868 19.1208C117.256 18.4551 117.45 17.6679 117.45 16.7594L118.366 16.8947H112.873V13.5034H121.788V16.1873C121.788 18.0598 121.393 19.6687 120.602 21.0141C119.812 22.3526 118.723 23.3859 117.336 24.1141C115.949 24.8353 114.361 25.196 112.572 25.196C110.574 25.196 108.82 24.7556 107.308 23.8748C105.796 22.9871 104.617 21.7284 103.771 20.0987C102.932 18.462 102.512 16.5202 102.512 14.2732C102.512 12.5464 102.762 11.0068 103.261 9.65444C103.767 8.29516 104.475 7.14394 105.383 6.20077C106.292 5.2576 107.349 4.53982 108.556 4.04743C109.763 3.55504 111.07 3.30884 112.478 3.30884C113.685 3.30884 114.808 3.48569 115.848 3.83938C116.889 4.18613 117.811 4.67852 118.616 5.31655C119.427 5.95457 120.089 6.71397 120.602 7.59472C121.116 8.46854 121.445 9.43252 121.591 10.4866H117.013Z" fill="white"/>
<path d="M125.379 24.9048V8.92637H129.676V11.7143H129.842C130.133 10.7225 130.622 9.97356 131.309 9.4673C131.996 8.95411 132.786 8.69751 133.681 8.69751C133.903 8.69751 134.142 8.71138 134.399 8.73912C134.655 8.76686 134.881 8.805 135.075 8.85355V12.7857C134.867 12.7233 134.579 12.6678 134.211 12.6193C133.844 12.5707 133.507 12.5465 133.202 12.5465C132.55 12.5465 131.968 12.6886 131.455 12.973C130.948 13.2504 130.546 13.6387 130.248 14.1381C129.957 14.6374 129.811 15.213 129.811 15.8649V24.9048H125.379Z" fill="white"/>
<path d="M144.134 25.2169C142.519 25.2169 141.121 24.8736 139.942 24.187C138.77 23.4935 137.865 22.5295 137.227 21.2951C136.589 20.0537 136.27 18.6147 136.27 16.978C136.27 15.3274 136.589 13.8849 137.227 12.6505C137.865 11.4091 138.77 10.4451 139.942 9.75853C141.121 9.06502 142.519 8.71826 144.134 8.71826C145.75 8.71826 147.144 9.06502 148.316 9.75853C149.495 10.4451 150.404 11.4091 151.042 12.6505C151.68 13.8849 151.999 15.3274 151.999 16.978C151.999 18.6147 151.68 20.0537 151.042 21.2951C150.404 22.5295 149.495 23.4935 148.316 24.187C147.144 24.8736 145.75 25.2169 144.134 25.2169ZM144.155 21.784C144.89 21.784 145.504 21.5759 145.997 21.1598C146.489 20.7368 146.86 20.1612 147.11 19.433C147.366 18.7048 147.495 17.8761 147.495 16.9468C147.495 16.0175 147.366 15.1887 147.11 14.4605C146.86 13.7324 146.489 13.1568 145.997 12.7337C145.504 12.3107 144.89 12.0992 144.155 12.0992C143.413 12.0992 142.789 12.3107 142.283 12.7337C141.783 13.1568 141.406 13.7324 141.149 14.4605C140.899 15.1887 140.774 16.0175 140.774 16.9468C140.774 17.8761 140.899 18.7048 141.149 19.433C141.406 20.1612 141.783 20.7368 142.283 21.1598C142.789 21.5759 143.413 21.784 144.155 21.784Z" fill="white"/>
<path d="M46.5881 31.8496C46.5289 31.6579 46.4472 31.4862 46.3431 31.3347C46.2413 31.1808 46.1182 31.0494 45.9737 30.9405C45.8317 30.8316 45.6683 30.7499 45.4837 30.6955C45.299 30.6387 45.0978 30.6103 44.88 30.6103C44.4894 30.6103 44.1413 30.7085 43.8359 30.905C43.5305 31.1015 43.2903 31.3903 43.1151 31.7715C42.9423 32.1503 42.8558 32.6119 42.8558 33.1564C42.8558 33.7057 42.9423 34.1709 43.1151 34.552C43.2879 34.9332 43.5281 35.2232 43.8359 35.4221C44.1436 35.6186 44.5012 35.7168 44.9084 35.7168C45.2777 35.7168 45.5972 35.6458 45.8671 35.5037C46.1394 35.3617 46.349 35.1605 46.4958 34.9C46.6425 34.6373 46.7159 34.3295 46.7159 33.9767L47.0141 34.0229H45.0397V32.9931H47.9907V33.8667C47.9907 34.4893 47.8582 35.0279 47.5931 35.4824C47.3279 35.937 46.9633 36.2874 46.4993 36.5336C46.0353 36.7774 45.5025 36.8993 44.9012 36.8993C44.2312 36.8993 43.6429 36.749 43.1363 36.4483C42.632 36.1453 42.2378 35.7156 41.9538 35.1593C41.672 34.6006 41.5312 33.9377 41.5312 33.1706C41.5312 32.5835 41.6141 32.0591 41.7798 31.5975C41.9479 31.1358 42.1823 30.744 42.483 30.4221C42.7836 30.0977 43.1363 29.8515 43.5411 29.6834C43.9459 29.513 44.3864 29.4277 44.8622 29.4277C45.2647 29.4277 45.6399 29.4869 45.9879 29.6053C46.336 29.7213 46.6448 29.887 46.9147 30.1025C47.1869 30.3179 47.4107 30.5736 47.5859 30.8695C47.761 31.1654 47.876 31.4921 47.9304 31.8496H46.5881ZM49.9648 36.7999V29.5272H52.692C53.2507 29.5272 53.7195 29.6242 54.0983 29.8184C54.4794 30.0125 54.7671 30.2847 54.9612 30.6351C55.1577 30.9831 55.256 31.3892 55.256 31.8532C55.256 32.3195 55.1564 32.7244 54.9576 33.0677C54.7611 33.4086 54.4711 33.6725 54.0876 33.8596C53.7041 34.0442 53.233 34.1365 52.6743 34.1365H50.7318V33.0428H52.4967C52.8234 33.0428 53.0909 32.9978 53.2993 32.9079C53.5076 32.8155 53.6614 32.6818 53.7608 32.5066C53.8626 32.329 53.9136 32.1112 53.9136 31.8532C53.9136 31.5951 53.8626 31.3749 53.7608 31.1927C53.659 31.008 53.5041 30.8683 53.2957 30.7736C53.0874 30.6766 52.8187 30.628 52.4896 30.628H51.2822V36.7999H49.9648ZM53.7219 33.5044L55.5223 36.7999H54.0521L52.2836 33.5044H53.7219ZM63.6671 33.1635C63.6671 33.9472 63.5204 34.6183 63.2268 35.177C62.9356 35.7334 62.5379 36.1595 62.0336 36.4554C61.5317 36.7514 60.9625 36.8993 60.3256 36.8993C59.6887 36.8993 59.1181 36.7514 58.6139 36.4554C58.112 36.1571 57.7143 35.7298 57.4207 35.1735C57.1295 34.6148 56.984 33.9448 56.984 33.1635C56.984 32.3799 57.1295 31.7099 57.4207 31.1536C57.7143 30.5949 58.112 30.1676 58.6139 29.8716C59.1181 29.5757 59.6887 29.4277 60.3256 29.4277C60.9625 29.4277 61.5317 29.5757 62.0336 29.8716C62.5379 30.1676 62.9356 30.5949 63.2268 31.1536C63.5204 31.7099 63.6671 32.3799 63.6671 33.1635ZM62.3427 33.1635C62.3427 32.6119 62.2563 32.1467 62.0834 31.7679C61.913 31.3868 61.6761 31.0991 61.3731 30.905C61.0702 30.7085 60.7209 30.6103 60.3256 30.6103C59.9303 30.6103 59.5811 30.7085 59.278 30.905C58.975 31.0991 58.7371 31.3868 58.5643 31.7679C58.3938 32.1467 58.3086 32.6119 58.3086 33.1635C58.3086 33.7151 58.3938 34.1815 58.5643 34.5627C58.7371 34.9415 58.975 35.2291 59.278 35.4256C59.5811 35.6197 59.9303 35.7168 60.3256 35.7168C60.7209 35.7168 61.0702 35.6197 61.3731 35.4256C61.6761 35.2291 61.913 34.9415 62.0834 34.5627C62.2563 34.1815 62.3427 33.7151 62.3427 33.1635ZM66.9577 36.7999L64.9052 29.5272H66.3221L67.6325 34.8716H67.7L69.0991 29.5272H70.3882L71.7908 34.8752H71.8548L73.1652 29.5272H74.5821L72.5294 36.7999H71.2298L69.7738 31.6969H69.7169L68.2575 36.7999H66.9577ZM78.8789 29.5272H80.3669L82.146 32.7445H82.2169L83.996 29.5272H85.4839L82.8383 34.0868V36.7999H81.5245V34.0868L78.8789 29.5272ZM93.2055 33.1635C93.2055 33.9472 93.0587 34.6183 92.7652 35.177C92.474 35.7334 92.0763 36.1595 91.572 36.4554C91.0701 36.7514 90.5007 36.8993 89.8639 36.8993C89.2271 36.8993 88.6565 36.7514 88.1523 36.4554C87.6504 36.1571 87.2526 35.7298 86.9591 35.1735C86.6679 34.6148 86.5222 33.9448 86.5222 33.1635C86.5222 32.3799 86.6679 31.7099 86.9591 31.1536C87.2526 30.5949 87.6504 30.1676 88.1523 29.8716C88.6565 29.5757 89.2271 29.4277 89.8639 29.4277C90.5007 29.4277 91.0701 29.5757 91.572 29.8716C92.0763 30.1676 92.474 30.5949 92.7652 31.1536C93.0587 31.7099 93.2055 32.3799 93.2055 33.1635ZM91.881 33.1635C91.881 32.6119 91.7944 32.1467 91.6217 31.7679C91.4513 31.3868 91.2145 31.0991 90.9115 30.905C90.6085 30.7085 90.2593 30.6103 89.8639 30.6103C89.4685 30.6103 89.1194 30.7085 88.8163 30.905C88.5133 31.0991 88.2753 31.3868 88.1024 31.7679C87.932 32.1467 87.8468 32.6119 87.8468 33.1635C87.8468 33.7151 87.932 34.1815 88.1024 34.5627C88.2753 34.9415 88.5133 35.2291 88.8163 35.4256C89.1194 35.6197 89.4685 35.7168 89.8639 35.7168C90.2593 35.7168 90.6085 35.6197 90.9115 35.4256C91.2145 35.2291 91.4513 34.9415 91.6217 34.5627C91.7944 34.1815 91.881 33.7151 91.881 33.1635ZM99.7355 29.5272H101.053V34.2786C101.053 34.7994 100.93 35.2575 100.684 35.6529C100.44 36.0482 100.097 36.3572 99.6538 36.5797C99.2111 36.7999 98.6939 36.91 98.1021 36.91C97.5079 36.91 96.9894 36.7999 96.5467 36.5797C96.104 36.3572 95.7607 36.0482 95.5169 35.6529C95.273 35.2575 95.151 34.7994 95.151 34.2786V29.5272H96.4686V34.1685C96.4686 34.4715 96.5348 34.7414 96.6674 34.9782C96.8023 35.2149 96.9917 35.4008 97.2355 35.5357C97.4794 35.6683 97.7682 35.7346 98.1021 35.7346C98.4359 35.7346 98.7247 35.6683 98.9686 35.5357C99.2148 35.4008 99.4042 35.2149 99.5367 34.9782C99.6693 34.7414 99.7355 34.4715 99.7355 34.1685V29.5272ZM103.185 36.7999V29.5272H105.913C106.471 29.5272 106.94 29.6242 107.319 29.8184C107.7 30.0125 107.988 30.2847 108.182 30.6351C108.378 30.9831 108.477 31.3892 108.477 31.8532C108.477 32.3195 108.377 32.7244 108.178 33.0677C107.982 33.4086 107.692 33.6725 107.308 33.8596C106.925 34.0442 106.454 34.1365 105.895 34.1365H103.953V33.0428H105.717C106.044 33.0428 106.312 32.9978 106.52 32.9079C106.728 32.8155 106.882 32.6818 106.982 32.5066C107.083 32.329 107.134 32.1112 107.134 31.8532C107.134 31.5951 107.083 31.3749 106.982 31.1927C106.88 31.008 106.725 30.8683 106.516 30.7736C106.308 30.6766 106.039 30.628 105.71 30.628H104.503V36.7999H103.185ZM106.943 33.5044L108.743 36.7999H107.273L105.504 33.5044H106.943ZM117.522 31.5265C117.489 31.2163 117.349 30.9749 117.103 30.802C116.859 30.6292 116.542 30.5428 116.152 30.5428C115.877 30.5428 115.641 30.5842 115.445 30.6671C115.248 30.7499 115.098 30.8624 114.994 31.0044C114.89 31.1465 114.836 31.3087 114.834 31.491C114.834 31.6425 114.868 31.7739 114.937 31.8851C115.008 31.9964 115.104 32.0911 115.225 32.1692C115.345 32.245 115.479 32.3089 115.626 32.361C115.773 32.4131 115.921 32.4569 116.07 32.4924L116.752 32.6628C117.026 32.7267 117.29 32.8132 117.544 32.9221C117.799 33.031 118.028 33.1683 118.229 33.334C118.433 33.4997 118.594 33.6998 118.712 33.9341C118.83 34.1685 118.889 34.4431 118.889 34.758C118.889 35.1841 118.781 35.5594 118.563 35.8837C118.345 36.2057 118.03 36.4578 117.618 36.6401C117.209 36.82 116.713 36.91 116.13 36.91C115.564 36.91 115.073 36.8224 114.656 36.6472C114.242 36.472 113.918 36.2163 113.683 35.8802C113.451 35.544 113.326 35.1344 113.307 34.6515H114.603C114.622 34.9048 114.7 35.1155 114.838 35.2836C114.975 35.4517 115.154 35.5771 115.374 35.66C115.596 35.7428 115.845 35.7843 116.12 35.7843C116.406 35.7843 116.657 35.7417 116.872 35.6564C117.09 35.5688 117.261 35.4481 117.384 35.2942C117.507 35.138 117.57 34.9557 117.572 34.7473C117.57 34.5579 117.514 34.4017 117.405 34.2786C117.296 34.1531 117.143 34.049 116.947 33.9661C116.753 33.8809 116.526 33.8051 116.265 33.7388L115.438 33.5258C114.839 33.3719 114.365 33.1387 114.017 32.8262C113.672 32.5113 113.499 32.0935 113.499 31.5726C113.499 31.1441 113.615 30.7689 113.847 30.4469C114.081 30.1249 114.4 29.8752 114.802 29.6976C115.205 29.5177 115.66 29.4277 116.169 29.4277C116.685 29.4277 117.138 29.5177 117.526 29.6976C117.916 29.8752 118.223 30.1226 118.446 30.4398C118.668 30.7547 118.783 31.1169 118.79 31.5265H117.522ZM120.764 36.7999V29.5272H122.081V32.8688H122.17L125.008 29.5272H126.616L123.804 32.7907L126.641 36.7999H125.057L122.888 33.682L122.081 34.6337V36.7999H120.764ZM129.549 29.5272V36.7999H128.232V29.5272H129.549ZM131.676 36.7999V29.5272H132.993V35.6955H136.196V36.7999H131.676ZM138.04 36.7999V29.5272H139.357V35.6955H142.56V36.7999H138.04ZM148.356 31.5265C148.323 31.2163 148.183 30.9749 147.937 30.802C147.693 30.6292 147.376 30.5428 146.986 30.5428C146.711 30.5428 146.475 30.5842 146.279 30.6671C146.082 30.7499 145.932 30.8624 145.828 31.0044C145.724 31.1465 145.67 31.3087 145.668 31.491C145.668 31.6425 145.702 31.7739 145.771 31.8851C145.842 31.9964 145.938 32.0911 146.059 32.1692C146.179 32.245 146.313 32.3089 146.46 32.361C146.607 32.4131 146.755 32.4569 146.904 32.4924L147.586 32.6628C147.86 32.7267 148.124 32.8132 148.378 32.9221C148.633 33.031 148.862 33.1683 149.063 33.334C149.267 33.4997 149.428 33.6998 149.546 33.9341C149.664 34.1685 149.723 34.4431 149.723 34.758C149.723 35.1841 149.615 35.5594 149.397 35.8837C149.179 36.2057 148.864 36.4578 148.452 36.6401C148.043 36.82 147.547 36.91 146.964 36.91C146.398 36.91 145.907 36.8224 145.49 36.6472C145.076 36.472 144.752 36.2163 144.517 35.8802C144.285 35.544 144.16 35.1344 144.141 34.6515H145.437C145.456 34.9048 145.534 35.1155 145.672 35.2836C145.809 35.4517 145.988 35.5771 146.208 35.66C146.43 35.7428 146.679 35.7843 146.954 35.7843C147.24 35.7843 147.491 35.7417 147.706 35.6564C147.924 35.5688 148.095 35.4481 148.218 35.2942C148.341 35.138 148.404 34.9557 148.406 34.7473C148.404 34.5579 148.348 34.4017 148.239 34.2786C148.13 34.1531 147.977 34.049 147.781 33.9661C147.587 33.8809 147.36 33.8051 147.099 33.7388L146.272 33.5258C145.673 33.3719 145.199 33.1387 144.851 32.8262C144.506 32.5113 144.333 32.0935 144.333 31.5726C144.333 31.1441 144.449 30.7689 144.681 30.4469C144.915 30.1249 145.234 29.8752 145.636 29.6976C146.039 29.5177 146.494 29.4277 147.003 29.4277C147.519 29.4277 147.972 29.5177 148.36 29.6976C148.75 29.8752 149.057 30.1226 149.28 30.4398C149.502 30.7547 149.617 31.1169 149.624 31.5265H148.356Z" fill="white"/>
<path d="M0 19.8C0 10.1351 7.83502 2.30005 17.5 2.30005C27.165 2.30005 35 10.1351 35 19.8C35 29.465 27.165 37.3 17.5 37.3C7.83502 37.3 0 29.465 0 19.8Z" fill="#6059F7"/>
<mask id="mask1_6512_6750" style="mask-type:alpha" maskUnits="userSpaceOnUse" x="0" y="2" width="35" height="36">
<path d="M0 19.8C0 10.1351 7.83502 2.30005 17.5 2.30005C27.165 2.30005 35 10.1351 35 19.8C35 29.465 27.165 37.3 17.5 37.3C7.83502 37.3 0 29.465 0 19.8Z" fill="#E21A23"/>
</mask>
<g mask="url(#mask1_6512_6750)">
<path d="M13.4169 21.6159C15.161 22.2097 17.0646 21.2528 17.6687 19.4785C18.2729 17.7041 17.3488 15.7844 15.6048 15.1905C13.8607 14.5967 11.9571 15.5536 11.353 17.3279C10.7488 19.1022 11.6729 21.022 13.4169 21.6159Z" fill="white"/>
<path d="M17.2605 12.5647L16.9375 11.5034L17.3639 12.5262L17.2605 12.5647Z" fill="white"/>
<path d="M17.4945 12.9115L17.468 12.6402L17.3141 12.4258L17.2031 12.6297L17.223 12.8783L17.2448 13.1178L17.3964 13.2588L17.5108 13.1322L17.4945 12.9115ZM17.3174 12.7581C17.3103 12.7355 17.3087 12.7115 17.3127 12.688C17.3168 12.6646 17.3264 12.6424 17.3407 12.6234C17.3668 12.7 17.3446 12.8073 17.3174 12.7581ZM17.2745 13.0445C17.2679 13.0218 17.2666 12.9979 17.2707 12.9745C17.2747 12.9512 17.284 12.929 17.2978 12.9098C17.324 12.9864 17.3017 13.0936 17.2745 13.0445ZM17.4003 12.9229C17.3932 12.9003 17.3916 12.8763 17.3956 12.8528C17.3997 12.8294 17.4093 12.8072 17.4235 12.7882C17.447 12.859 17.4236 12.9659 17.4003 12.9229ZM17.392 13.1111C17.3849 13.0887 17.3832 13.0649 17.3872 13.0416C17.3912 13.0183 17.4007 12.9963 17.4149 12.9775C17.4411 13.0541 17.4189 13.1613 17.392 13.1111Z" fill="white"/>
<path d="M17.3789 11.4094C17.3789 11.4094 15.2067 11.3612 12.3493 9.85034C12.3493 9.85034 9.98237 14.01 8.05469 15.2223C8.05469 15.2223 9.4911 14.7444 10.5462 14.741L10.5779 14.7071L10.5917 14.6876C10.6065 14.6649 10.6293 14.6364 10.659 14.5981C10.7176 14.5238 10.8043 14.4192 10.9154 14.3023C10.9719 14.2409 11.032 14.1808 11.0956 14.1219C11.1629 14.0602 11.2332 13.9935 11.3098 13.9289C11.3865 13.8644 11.4667 13.7998 11.5494 13.7349C11.6321 13.67 11.72 13.6105 11.8056 13.5477C11.8911 13.485 11.984 13.432 12.0709 13.3758L12.3352 13.224L12.5886 13.0939C12.6686 13.0511 12.7491 13.0205 12.8196 12.9877C12.8902 12.9549 12.96 12.9243 13.0184 12.903L13.1726 12.8443L13.309 12.7929L13.1772 12.8519L13.0253 12.9211C12.9662 12.9445 12.9038 12.9813 12.8336 13.0166C12.7633 13.0519 12.6902 13.0886 12.6092 13.1348L12.3663 13.2793L12.1168 13.4361C12.0331 13.4971 11.9476 13.5562 11.8653 13.62C11.783 13.6839 11.7024 13.7495 11.6243 13.8184C11.5462 13.8873 11.4706 13.9522 11.4007 14.0215C11.3308 14.0908 11.2644 14.1564 11.2021 14.221C11.1397 14.2856 11.0855 14.3505 11.0357 14.4061C10.9345 14.5252 10.8585 14.6298 10.8063 14.7027C10.7806 14.7399 10.7614 14.7684 10.7501 14.7875L10.7302 14.8182L10.705 14.8677C10.8204 14.9803 10.9033 15.1229 10.9447 15.2802C10.9861 15.4376 10.9845 15.6038 10.9402 15.7612C10.9402 15.7612 13.1051 13.6917 16.0202 14.0702C16.0202 14.0702 15.956 12.4093 17.3789 11.4094Z" fill="white"/>
<path d="M8.63331 22.5969C8.68075 22.6843 9.19876 22.7193 9.2848 22.7353C9.85668 22.8398 10.4341 22.9122 11.0146 22.952C12.6853 23.07 14.4184 22.9421 16.0044 22.3423C17.3832 21.8206 18.41 21.2093 19.602 20.3605C21.0807 19.3047 22.5458 17.7028 23.9433 16.6411C22.239 21.0003 19.9386 25.1002 17.1102 28.8194C14.515 32.2123 11.4237 35.2683 7.80094 37.5159C6.26898 38.4726 4.64485 39.2665 2.95466 39.8848C2.95466 39.8848 8.68692 36.2015 12.6982 29.9305C12.6982 29.9305 5.64704 36.3534 2.67969 36.6726C2.67969 36.6726 6.98661 34.5129 8.64848 28.3097C8.64848 28.3097 15.1942 27.3039 17.2554 24.1221C17.2554 24.1221 14.7093 25.7935 9.85152 24.8115L8.63331 22.5969Z" fill="white"/>
<path d="M18.8711 18.8774L19.2316 17.3093L27.3549 11.51L26.1654 11.2102L28.643 10.6021L27.5739 12.9988L27.497 11.7555L20.419 18.8293L18.8711 18.8774Z" fill="white"/>
</g>
</g>
</g>
</g>
<defs>
<clipPath id="clip0_6512_6750">
<rect width="156" height="38" fill="white" transform="translate(0 0.800049)"/>
</clipPath>
<clipPath id="clip1_6512_6750">
<rect width="156" height="38" fill="white" transform="translate(0 0.800049)"/>
</clipPath>
</defs>
</svg>
