<svg width="10" height="6" viewBox="0 0 10 6" fill="none" xmlns="http://www.w3.org/2000/svg">
<path d="M0.523438 1.10667C0.523438 0.982222 0.554549 0.865556 0.616771 0.756667C0.678993 0.647778 0.764549 0.577778 0.873437 0.546667C0.982326 0.515556 1.09899 0.507778 1.22344 0.523333C1.34788 0.538889 1.44122 0.593333 1.50344 0.686667L5.1901 4.32667L8.87677 0.686667C8.9701 0.562222 9.10233 0.5 9.27344 0.5C9.44455 0.5 9.58455 0.554444 9.69344 0.663333C9.80233 0.772222 9.85677 0.912222 9.85677 1.08333C9.85677 1.25444 9.79455 1.38667 9.6701 1.48L5.6101 5.58667C5.48566 5.68 5.34566 5.72667 5.1901 5.72667C5.03455 5.72667 4.89455 5.68 4.7701 5.58667L0.710104 1.48C0.58566 1.38667 0.523438 1.24667 0.523438 1.06V1.10667Z" fill="#161439"/>
</svg>
