<svg width="15" height="21" viewBox="0 0 15 21" fill="none" xmlns="http://www.w3.org/2000/svg">
<path d="M7.26953 0.300047C5.98064 0.300047 4.80287 0.611158 3.7362 1.23338C2.66953 1.8556 1.82509 2.71116 1.20286 3.80005C0.580642 4.88894 0.269531 6.08894 0.269531 7.40005C0.269531 8.71116 0.602865 9.92227 1.26953 11.0334L6.86953 20.0334C7.00286 20.2112 7.15842 20.3 7.3362 20.3H7.40286C7.58064 20.3 7.7362 20.2112 7.86953 20.0334L13.3362 10.9667C13.9584 9.8556 14.2695 8.6556 14.2695 7.36671C14.2695 6.07783 13.9584 4.88894 13.3362 3.80005C12.714 2.71116 11.8695 1.8556 10.8029 1.23338C9.7362 0.611158 8.55842 0.300047 7.26953 0.300047ZM12.3362 10.3L7.3362 18.5667L2.26953 10.4334C1.69175 9.4556 1.40286 8.43338 1.40286 7.36671C1.40286 6.30005 1.66953 5.31116 2.20286 4.40005C2.7362 3.48894 3.44731 2.76671 4.3362 2.23338C5.22509 1.70005 6.20287 1.43338 7.26953 1.43338C8.3362 1.43338 9.31398 1.70005 10.2029 2.23338C11.0918 2.76671 11.8029 3.48894 12.3362 4.40005C12.8695 5.31116 13.1362 6.30005 13.1362 7.36671C13.1362 8.43338 12.8695 9.41116 12.3362 10.3ZM7.26953 3.83338C6.29175 3.83338 5.45842 4.17783 4.76953 4.86671C4.08064 5.5556 3.7362 6.37783 3.7362 7.33338C3.7362 8.28894 4.08064 9.11116 4.76953 9.80005C5.45842 10.4889 6.29175 10.8334 7.26953 10.8334C8.24731 10.8334 9.08064 10.4889 9.76953 9.80005C10.4584 9.11116 10.8029 8.28894 10.8029 7.33338C10.8029 6.37783 10.4584 5.5556 9.76953 4.86671C9.08064 4.17783 8.24731 3.83338 7.26953 3.83338ZM7.26953 9.70005C6.60286 9.70005 6.04731 9.46671 5.60286 9.00005C5.15842 8.53338 4.9362 7.97783 4.9362 7.33338C4.9362 6.68894 5.15842 6.13338 5.60286 5.66671C6.04731 5.20005 6.60286 4.96671 7.26953 4.96671C7.9362 4.96671 8.49175 5.20005 8.9362 5.66671C9.38064 6.13338 9.60287 6.68894 9.60287 7.33338C9.60287 7.97783 9.38064 8.53338 8.9362 9.00005C8.49175 9.46671 7.9362 9.70005 7.26953 9.70005Z" fill="#5751E1"/>
</svg>
