<svg width="7" height="12" viewBox="0 0 7 12" fill="none" xmlns="http://www.w3.org/2000/svg">
<path d="M0.783177 11.3833C0.640955 11.3833 0.507622 11.3477 0.383177 11.2766C0.258733 11.2055 0.178733 11.1077 0.143177 10.9833C0.107622 10.8589 0.0987326 10.7255 0.11651 10.5833C0.134288 10.4411 0.19651 10.3344 0.303177 10.2633L4.46318 6.04997L0.303177 1.83663C0.160955 1.72997 0.0898438 1.57886 0.0898438 1.3833C0.0898438 1.18775 0.152066 1.02775 0.27651 0.9033C0.400955 0.778856 0.560955 0.716634 0.75651 0.716634C0.952066 0.716634 1.10318 0.787745 1.20984 0.929967L5.90318 5.56997C6.00984 5.71219 6.06318 5.87219 6.06318 6.04997C6.06318 6.22775 6.00984 6.38774 5.90318 6.52997L1.20984 11.17C1.10318 11.3122 0.943177 11.3833 0.729844 11.3833H0.783177Z" fill="#161439"/>
</svg>
